<svg width="120" height="40" viewBox="0 0 120 40" fill="none" xmlns="http://www.w3.org/2000/svg">
<path d="M62.9617 27.2936L63.2246 31.626C61.8595 31.9492 60.4591 32.1006 59.0562 32.078C54.7314 32.078 52.4254 30.2559 52.4254 25.8162C52.4254 22.3367 52.4914 18.5133 52.5241 16.4207H50.2833C50.2833 15.4765 50.2833 14.1231 50.2833 13.1379C53.6482 12.5796 54.7071 10.6762 55.2075 7H58.908C58.7767 8.51836 58.6619 10.7172 58.6619 12.2105H62.5926V16.4207H58.605V24.0033C58.605 26.9404 59.1951 27.7448 61.2224 27.7448C61.8309 27.7439 62.4294 27.589 62.9617 27.2936ZM83.6086 22.5912C83.6086 20.9498 83.6086 18.751 83.6086 18.751C83.6086 13.8276 81.4507 11.6036 75.3371 11.6036C71.907 11.6036 69.4613 12.2021 65.6294 12.2021C65.8428 15.6657 65.8503 19.9412 65.8344 22.5828C65.8177 25.2253 65.744 30.1001 65.6294 31.6596H72.1941C72.046 30.1001 71.907 25.6113 71.9312 22.5828C71.9312 20.8602 71.9313 18.7753 72.0217 15.9771C72.7909 15.7167 73.5978 15.5837 74.4097 15.5837C76.7074 15.5837 77.4457 16.6584 77.4457 19.629C77.4457 19.629 77.4457 21.4922 77.4457 22.5828C77.4457 25.2747 77.356 30.1001 77.2406 31.6596H83.8054C83.7232 30.1001 83.5927 25.6113 83.6086 22.5828V22.5912ZM39.6901 23.4533C38.9836 23.4533 37.7858 23.4533 37.179 23.404V23.5353C37.179 26.3252 39.0087 28.0896 42.3978 28.0896C44.2384 28.0812 46.0456 27.5949 47.6417 26.6784L47.8795 31.0351C45.8104 31.7934 43.6156 32.1533 41.4127 32.0939C34.5281 32.0939 31.221 29.7386 30.6468 23.3546C29.8257 23.3546 28.6773 23.2725 27.0602 23.2641C27.0192 24.3883 26.9782 25.3819 26.9782 26.2105C26.9379 28.031 27.0343 29.8524 27.2653 31.6596C23.4911 31.6596 20.5691 32.078 17.5985 32.078C11.9779 32.078 10 29.7469 10 25.7752C10 21.8035 13.1757 19.8425 20.0359 19.8425H20.9801V19.4323C20.9801 16.7078 20.1589 15.5669 17.3851 15.5669C15.5018 15.623 13.6561 16.1143 11.9938 17.0033L11.7644 12.6541C14.0437 11.8832 16.4409 11.5216 18.8465 11.5869C24.8613 11.5869 27.1263 13.5648 27.1263 19.0222C27.1263 19.3252 27.1263 19.6207 27.1263 19.9078C28.5953 19.9078 29.67 19.9078 30.6543 19.9981C31.262 14.6152 33.9372 11.6036 40.6911 11.6036C46.2547 11.6036 48.8144 13.9423 48.8144 17.4628C48.8478 21.5576 45.7376 23.4533 39.6901 23.4533ZM20.9223 28.0645C20.8235 26.7438 20.8646 24.8319 20.8813 23.1989C20.6511 23.1989 20.3314 23.1989 20.061 23.1989C17.2051 23.1989 16.0642 24.159 16.0642 25.8489C16.0642 27.5397 16.959 28.3114 19.0516 28.3114C19.6827 28.3047 20.3104 28.2219 20.9223 28.0645ZM38.976 20.138C41.6177 20.138 42.8816 19.2516 42.8816 17.3481C42.8816 15.9938 41.9626 15.2556 40.543 15.2556C38.0403 15.2556 37.1706 17.2577 37.1706 19.9897V20.0885C37.6461 20.1296 38.319 20.138 38.9509 20.138H38.976ZM103.418 31.626C99.6435 31.626 96.7222 32.0446 93.7516 32.0446C88.1302 32.0446 86.1523 29.7143 86.1523 25.7426C86.1523 21.7709 89.3205 19.8097 96.1891 19.8097H97.1324V19.3997C97.1324 16.6751 96.3121 15.5343 93.5382 15.5343C91.6541 15.5904 89.8092 16.0817 88.147 16.9706L87.9168 12.6206C90.2077 11.8397 92.62 11.4722 95.0399 11.5375C101.063 11.5375 103.32 13.5154 103.32 18.9728C103.32 21.894 103.131 24.3966 103.131 26.1611C103.072 27.9976 103.151 29.8348 103.369 31.6596L103.418 31.626ZM97.083 28.0319C96.985 26.711 97.0261 24.7993 97.042 23.1662C96.8127 23.1662 96.4921 23.1662 96.2217 23.1662C93.3658 23.1662 92.2249 24.1263 92.2249 25.8162C92.2249 27.507 93.1197 28.278 95.2122 28.278C95.8341 28.2805 96.4535 28.2094 97.0588 28.0645L97.083 28.0319Z" fill="#1C4A36"/>
<path d="M105.494 15.8132C105.273 15.5579 105.103 15.2632 104.994 14.9435C104.877 14.6053 104.819 14.2505 104.821 13.893C104.82 13.5348 104.881 13.1799 105.002 12.8426C105.119 12.5396 105.291 12.2608 105.511 12.0223C105.741 11.7737 106.021 11.5753 106.331 11.4397C107.022 11.151 107.8 11.151 108.49 11.4397C108.801 11.5737 109.081 11.772 109.31 12.0223C109.53 12.2617 109.702 12.5396 109.819 12.8426C109.941 13.1791 110.002 13.5348 110 13.893C110.001 14.2513 109.94 14.6062 109.819 14.9435C109.707 15.2641 109.535 15.5587 109.31 15.8132C109.08 16.0618 108.801 16.2601 108.49 16.3957C107.8 16.6845 107.022 16.6845 106.331 16.3957C106.014 16.2643 105.729 16.0651 105.494 15.8132ZM106.495 15.994C106.776 16.122 107.081 16.1865 107.39 16.1823C107.699 16.189 108.005 16.1245 108.285 15.994C108.536 15.8751 108.76 15.7044 108.941 15.4934C109.124 15.2783 109.263 15.0306 109.351 14.7627C109.444 14.4848 109.491 14.1944 109.491 13.9014C109.488 13.6218 109.44 13.3456 109.351 13.0811C109.262 12.8158 109.123 12.5706 108.941 12.3588C108.76 12.147 108.537 11.9763 108.285 11.8582C107.717 11.6113 107.071 11.6113 106.504 11.8582C106.252 11.9763 106.028 12.147 105.848 12.3588C105.666 12.5706 105.526 12.8158 105.437 13.0811C105.348 13.3456 105.301 13.6218 105.298 13.9014C105.29 14.3367 105.395 14.7661 105.602 15.1486C105.806 15.5152 106.118 15.8107 106.495 15.994ZM106.439 12.2516H106.906H107.317C107.664 12.219 108.011 12.3153 108.292 12.5228C108.487 12.6986 108.595 12.9506 108.588 13.2117C108.59 13.3373 108.571 13.4628 108.531 13.5817C108.493 13.6855 108.437 13.7834 108.367 13.8688C108.3 13.95 108.219 14.0194 108.129 14.0738C108.043 14.1274 107.949 14.1667 107.85 14.1885L108.67 15.5093C108.627 15.5361 108.58 15.5554 108.531 15.5671H108.4C108.323 15.5671 108.247 15.5503 108.178 15.5177C108.101 15.4775 108.038 15.4139 107.997 15.3377L107.341 14.2463H106.939V15.5261H106.454L106.439 12.2516ZM107.414 13.7533C107.858 13.7533 108.079 13.5649 108.079 13.1791C108.089 13.0301 108.025 12.8853 107.908 12.7932C107.737 12.6919 107.538 12.6459 107.341 12.6626H107.103H106.914V13.729L107.414 13.7533Z" fill="#1C4A36"/>
</svg>
