<svg width="65" height="19" viewBox="0 0 65 19" fill="none" xmlns="http://www.w3.org/2000/svg">
<path d="M50.8095 12.1768L54.2381 11.8406C54.4444 13.0014 54.8611 13.8541 55.4881 14.3985C56.123 14.9429 56.9762 15.2151 58.0476 15.2151C59.1825 15.2151 60.0357 14.9749 60.6071 14.4945C61.1865 14.0062 61.4762 13.4378 61.4762 12.7893C61.4762 12.373 61.3532 12.0207 61.1071 11.7325C60.869 11.4363 60.4484 11.1801 59.8452 10.964C59.4325 10.8199 58.4921 10.5637 57.0238 10.1954C55.1349 9.72306 53.8095 9.14264 53.0476 8.45414C51.9762 7.48544 51.4405 6.30458 51.4405 4.91157C51.4405 4.01492 51.6905 3.17831 52.1905 2.40174C52.6984 1.61717 53.4246 1.02074 54.369 0.612445C55.3214 0.204148 56.4683 0 57.8095 0C60 0 61.6468 0.484352 62.75 1.45306C63.8611 2.42176 64.4444 3.7147 64.5 5.33187L60.9762 5.48799C60.8254 4.58333 60.5 3.93486 60 3.54257C59.5079 3.14228 58.7659 2.94214 57.7738 2.94214C56.75 2.94214 55.9484 3.15429 55.369 3.5786C54.996 3.8508 54.8095 4.21506 54.8095 4.67139C54.8095 5.0877 54.9841 5.44395 55.3333 5.74017C55.7778 6.11644 56.8571 6.50873 58.5714 6.91702C60.2857 7.32532 61.5516 7.74963 62.369 8.18995C63.1944 8.62226 63.8373 9.2187 64.2976 9.97925C64.7659 10.7318 65 11.6645 65 12.7773C65 13.786 64.7222 14.7307 64.1667 15.6113C63.6111 16.492 62.8254 17.1485 61.8095 17.5808C60.7936 18.0051 59.5278 18.2172 58.0119 18.2172C55.8056 18.2172 54.1111 17.7049 52.9286 16.6801C51.746 15.6474 51.0397 14.1463 50.8095 12.1768Z" fill="#1C4A36" fill-opacity="0.75"/>
<path d="M34.4762 0.300217H41.4524C42.8333 0.300217 43.8611 0.36026 44.5357 0.480348C45.2182 0.592429 45.8254 0.832603 46.3571 1.20087C46.8968 1.56914 47.3452 2.0615 47.7024 2.67794C48.0595 3.28639 48.2381 3.97088 48.2381 4.73144C48.2381 5.55603 48.0159 6.31258 47.5714 7.00108C47.1349 7.68958 46.5397 8.20596 45.7857 8.55021C46.8492 8.86244 47.6667 9.39482 48.2381 10.1474C48.8095 10.8999 49.0952 11.7846 49.0952 12.8013C49.0952 13.6019 48.9087 14.3824 48.5357 15.143C48.1706 15.8955 47.6667 16.5 47.0238 16.9563C46.3889 17.4046 45.6032 17.6808 44.6667 17.7849C44.0794 17.849 42.6627 17.889 40.4167 17.905H34.4762V0.300217ZM38 3.23035V7.3013H40.3095C41.6825 7.3013 42.5357 7.28129 42.869 7.24126C43.4722 7.16921 43.9444 6.96105 44.2857 6.6168C44.6349 6.26455 44.8095 5.80421 44.8095 5.2358C44.8095 4.69141 44.6587 4.25109 44.3571 3.91484C44.0635 3.57059 43.623 3.36244 43.0357 3.29039C42.6865 3.25036 41.6825 3.23035 40.0238 3.23035H38ZM38 10.2314V14.9388H41.2619C42.5317 14.9388 43.3373 14.9028 43.6786 14.8308C44.2024 14.7347 44.627 14.5025 44.9524 14.1343C45.2857 13.758 45.4524 13.2576 45.4524 12.6332C45.4524 12.1048 45.3254 11.6565 45.0714 11.2882C44.8175 10.9199 44.4484 10.6517 43.9643 10.4836C43.4881 10.3155 42.4484 10.2314 40.8452 10.2314H38Z" fill="#1C4A36" fill-opacity="0.75"/>
<path d="M28.3928 11.4323L31.8095 12.5251C31.2857 14.4465 30.4127 15.8755 29.1904 16.8122C27.9762 17.7409 26.4325 18.2052 24.5595 18.2052C22.242 18.2052 20.3373 17.4086 18.8452 15.8155C17.3531 14.2143 16.6071 12.0287 16.6071 9.25872C16.6071 6.3286 17.3571 4.05495 18.8571 2.43777C20.3571 0.81259 22.3293 0 24.7738 0C26.9087 0 28.6428 0.636462 29.9762 1.90939C30.7698 2.66193 31.3651 3.74272 31.7619 5.15174L28.2738 5.99235C28.0674 5.07969 27.6349 4.35917 26.9762 3.83078C26.3254 3.3024 25.5317 3.03821 24.5952 3.03821C23.3016 3.03821 22.25 3.50655 21.4404 4.44323C20.6389 5.37991 20.2381 6.89701 20.2381 8.99453C20.2381 11.2201 20.6349 12.8053 21.4285 13.75C22.2222 14.6947 23.2539 15.167 24.5238 15.167C25.4603 15.167 26.2658 14.8668 26.9404 14.2664C27.6151 13.6659 28.0992 12.7212 28.3928 11.4323Z" fill="#1C4A36" fill-opacity="0.75"/>
<path d="M0 0.300217H6.97619C8.35714 0.300217 9.38492 0.36026 10.0595 0.480348C10.7421 0.592429 11.3492 0.832603 11.881 1.20087C12.4206 1.56914 12.869 2.0615 13.2262 2.67794C13.5833 3.28639 13.7619 3.97088 13.7619 4.73144C13.7619 5.55603 13.5397 6.31258 13.0952 7.00108C12.6587 7.68958 12.0635 8.20596 11.3095 8.55021C12.373 8.86244 13.1905 9.39482 13.7619 10.1474C14.3333 10.8999 14.619 11.7846 14.619 12.8013C14.619 13.6019 14.4325 14.3824 14.0595 15.143C13.6944 15.8955 13.1905 16.5 12.5476 16.9563C11.9127 17.4046 11.127 17.6808 10.1905 17.7849C9.60317 17.849 8.18651 17.889 5.94048 17.905H0V0.300217ZM3.52381 3.23035V7.3013H5.83333C7.20635 7.3013 8.05952 7.28129 8.39286 7.24126C8.99603 7.16921 9.46825 6.96105 9.80952 6.6168C10.1587 6.26455 10.3333 5.80421 10.3333 5.2358C10.3333 4.69141 10.1825 4.25109 9.88095 3.91484C9.5873 3.57059 9.14682 3.36244 8.55952 3.29039C8.21032 3.25036 7.20635 3.23035 5.54762 3.23035H3.52381ZM3.52381 10.2314V14.9388H6.78571C8.05556 14.9388 8.86111 14.9028 9.20238 14.8308C9.72619 14.7347 10.1508 14.5025 10.4762 14.1343C10.8095 13.758 10.9762 13.2576 10.9762 12.6332C10.9762 12.1048 10.8492 11.6565 10.5952 11.2882C10.3413 10.9199 9.97222 10.6517 9.48809 10.4836C9.0119 10.3155 7.97222 10.2314 6.36905 10.2314H3.52381Z" fill="#1C4A36" fill-opacity="0.75"/>
</svg>
