<svg width="120" height="40" viewBox="0 0 120 40" fill="none" xmlns="http://www.w3.org/2000/svg">
<mask id="mask0_12337_16479" style="mask-type:luminance" maskUnits="userSpaceOnUse" x="13" y="3" width="95" height="33">
<path d="M107.875 3H13V36H107.875V3Z" fill="white"/>
</mask>
<g mask="url(#mask0_12337_16479)">
<path d="M24.4314 16.9177C25.2921 16.9177 30.8779 19.3834 30.8779 28.2399C30.8779 32.4724 29.4525 36.0001 28.6125 36.0001C28.2415 36.0001 28.1009 35.6297 28.1009 34.9179C28.1009 33.3507 28.6533 31.9626 28.6533 28.618C28.6533 22.1597 25.9933 19.5541 24.8024 18.0873C24.451 17.6532 24.1846 17.3708 24.1846 17.1156C24.1846 17.0117 24.2584 16.9177 24.4314 16.9177ZM38.5104 17.1156C38.5104 17.3708 38.2441 17.6532 37.8926 18.0873C36.7023 19.5541 34.0435 22.1597 34.0435 28.6168C34.0435 31.962 34.5934 33.3502 34.5934 34.9179C34.5934 35.6297 34.4529 36.0001 34.0831 36.0001C33.2413 36.0001 31.8166 32.4724 31.8166 28.2399C31.8166 19.3834 37.4035 16.9177 38.2653 16.9177C38.4372 16.9177 38.5104 17.0117 38.5104 17.1156Z" fill="#1C4A36"/>
<path d="M29.3076 18.6901C29.3076 19.8467 30.2197 20.783 31.3456 20.783C32.475 20.783 33.3882 19.8467 33.3882 18.6901C33.3882 17.5323 32.475 16.5972 31.3462 16.5972C30.2197 16.5972 29.3076 17.5323 29.3076 18.6901Z" fill="#1C4A36"/>
<path d="M20.7524 15.3825C19.6862 14.9005 18.8875 13.9341 18.7576 12.9966C19.5491 12.4756 20.7996 12.4354 21.8665 12.9181C22.9829 13.4231 23.2445 14.2767 23.2511 15.0275C22.6822 15.5201 21.87 15.8887 20.7524 15.3825ZM23.8111 9.74651C23.1247 8.6921 22.9652 7.35709 23.3899 6.43499C24.4065 6.4214 25.5607 7.11135 26.246 8.16459C26.9619 9.26922 26.7038 10.1919 26.2738 10.8742C25.4739 10.9894 24.527 10.8511 23.8111 9.74651ZM25.3989 15.3305C24.553 14.6134 24.0775 13.5258 24.2027 12.6368C25.0592 12.3687 26.2105 12.6581 27.0565 13.374C27.9425 14.1266 27.9567 14.9713 27.767 15.6577C27.1208 15.956 26.285 16.0807 25.3989 15.3305ZM27.9868 12.6315C27.6229 11.4548 27.8279 10.1523 28.476 9.39445C29.4382 9.65259 30.3419 10.6149 30.7058 11.7915C31.0868 13.0244 30.5948 13.8247 30.0082 14.3535C29.2256 14.2483 28.3661 13.8643 27.9868 12.6315ZM23.5299 21.2234C22.6875 21.3877 21.7985 21.146 21.3212 20.6398C21.5723 19.9901 22.3089 19.4347 23.1524 19.2711C24.0356 19.0999 24.5547 19.4998 24.8785 19.9481C24.7456 20.4856 24.416 21.0503 23.5299 21.2234ZM21.3029 18.7277C20.343 18.6237 19.4688 18.072 19.125 17.369C19.61 16.7559 20.584 16.4032 21.5445 16.5072C22.5505 16.6165 22.9746 17.219 23.1737 17.8068C22.8523 18.3402 22.3095 18.8369 21.3029 18.7277ZM21.2173 11.5996C20.4641 10.9604 20.0418 9.99461 20.1534 9.20483C20.9137 8.96501 21.9373 9.22314 22.6905 9.85993C23.4767 10.5286 23.4915 11.2794 23.3225 11.8902C22.7466 12.156 22.0047 12.2659 21.2173 11.5996ZM26.3494 6.53305C26.0458 5.55246 26.2182 4.46555 26.757 3.83526C27.5603 4.05206 28.3141 4.85306 28.6177 5.83246C28.9349 6.8603 28.5237 7.52603 28.0341 7.96907C27.3813 7.88045 26.6677 7.56089 26.3494 6.53305ZM13.7383 31.978C13.7383 32.0045 13.7554 32.0258 13.7891 32.0258C13.8204 32.0258 13.8771 32.0004 13.9385 31.9785C16.9523 30.8975 21.4022 29.5708 27.6472 29.1668C27.6548 29.11 27.6915 28.8318 27.6915 28.6174C27.6915 28.1655 27.6383 27.6941 27.6241 27.6155C21.2249 28.2027 16.8082 30.0581 13.9066 31.8415C13.7885 31.9148 13.7383 31.9313 13.7383 31.978ZM39.4454 15.0269C39.4519 14.2767 39.7125 13.4225 40.8288 12.9175C41.8945 12.4349 43.1468 12.4744 43.9378 12.996C43.8073 13.9335 43.0098 14.8999 41.9442 15.3813C40.8253 15.8876 40.0137 15.5195 39.4454 15.0269ZM36.4222 10.8736C35.9933 10.1913 35.734 9.26804 36.4511 8.16341C37.1357 7.11076 38.2894 6.42081 39.3066 6.43439C39.7301 7.3565 39.5695 8.6915 38.8854 9.74593C38.1695 10.8506 37.2208 10.9888 36.4222 10.8736ZM34.9277 15.6572C34.7392 14.9708 34.7534 14.126 35.6394 13.3735C36.4865 12.6575 37.6361 12.3681 38.4938 12.6368C38.6178 13.5247 38.1429 14.6128 37.2964 15.3293C36.4121 16.0796 35.5739 15.9555 34.9277 15.6572ZM32.6871 14.3535C32.1005 13.8247 31.6091 13.0244 31.99 11.791C32.3521 10.6149 33.26 9.65318 34.2206 9.39445C34.8686 10.1523 35.0736 11.4543 34.7097 12.6315C34.3287 13.8643 33.4727 14.2483 32.6871 14.3535ZM37.8186 19.9487C38.1423 19.5015 38.6592 19.0999 39.5441 19.2717C40.3888 19.4353 41.1236 19.9918 41.3752 20.6404C40.8991 21.1466 40.009 21.3877 39.1654 21.224C38.2805 21.0509 37.9492 20.4856 37.8186 19.9487ZM39.5228 17.8073C39.7219 17.2196 40.1466 16.617 41.1526 16.5078C42.1125 16.4039 43.0854 16.7577 43.5703 17.3703C43.2271 18.072 42.3523 18.6243 41.3936 18.7283C40.3864 18.8375 39.8424 18.3408 39.5228 17.8073ZM39.3734 11.8908C39.2038 11.28 39.2174 10.5292 40.006 9.85993C40.7591 9.22373 41.7823 8.96501 42.5425 9.20542C42.6536 9.9952 42.2312 10.961 41.4786 11.5996C40.6918 12.2671 39.9482 12.1572 39.3734 11.8908ZM34.6612 7.96965C34.1716 7.52662 33.7616 6.86089 34.0794 5.83305C34.3819 4.85365 35.1368 4.05265 35.936 3.83586C36.4794 4.46673 36.649 5.55305 36.3465 6.53363C36.0287 7.56147 35.3145 7.88105 34.6612 7.96965ZM48.7887 31.8421C45.8883 30.0587 41.4716 28.2033 35.0718 27.6161C35.0291 27.9484 35.0066 28.283 35.0044 28.618C35.0044 28.8324 35.0416 29.1106 35.0487 29.1674C41.2932 29.5719 45.7418 30.8981 48.758 31.9791C48.82 32.001 48.8779 32.0264 48.9057 32.0264C48.9411 32.0264 48.9588 32.0045 48.9588 31.9791C48.9588 31.9318 48.9057 31.9153 48.7887 31.8421ZM31.3474 9.00045C30.5186 8.61471 29.7022 7.89759 29.7022 6.40723C29.7022 4.98361 30.3739 3.61434 31.3479 3C32.322 3.61434 32.9937 4.98302 32.9937 6.40663C32.9937 7.89759 32.1785 8.61471 31.3474 9.00045Z" fill="#1C4A36"/>
<path d="M62.603 14.0398C62.603 14.9176 63.326 15.6294 64.2216 15.6294C65.1147 15.6294 65.839 14.9176 65.839 14.0398C65.839 13.1626 65.1147 12.4519 64.221 12.4519C63.326 12.4519 62.603 13.1626 62.603 14.0398ZM75.236 22.406C75.236 24.9148 74.2554 25.9597 72.8366 25.9597C71.4053 25.9597 70.6036 24.7452 70.6036 22.6152C70.6036 20.4413 71.8471 18.6444 74.1503 18.6444C74.6252 18.6444 74.9572 18.6916 75.236 18.7589V22.406ZM75.3743 26.5209V27.3361C75.3743 29.5719 73.9973 30.4403 72.2884 30.4403C70.7525 30.4403 69.6196 29.9778 69.2609 29.8531V32.0653C69.5528 32.1439 70.8004 32.5361 72.5802 32.5361C75.7405 32.5361 77.8523 31.2318 77.8523 26.7614V17.1138C77.4471 17.011 75.9631 16.6177 74.2548 16.6177C69.8215 16.6177 67.9165 19.5889 67.9165 22.8036C67.9165 25.7589 69.4033 28.0757 72.2511 28.0757C74.129 28.0757 75.0316 26.9415 75.3252 26.5209H75.3743ZM60.2993 25.1563C59.5875 25.4901 58.4486 25.7099 57.3463 25.7099C54.3408 25.7099 52.1274 23.5597 52.1274 20.2835C52.1274 17.0293 54.3254 14.8537 57.3463 14.8537C58.8437 14.8537 59.9094 15.22 60.2999 15.4055V13.0639C59.6424 12.8199 58.5762 12.5736 57.0687 12.5736C52.405 12.5736 49.2695 15.7989 49.2695 20.2848C49.2695 24.5243 52.1546 27.9912 57.0692 27.9912C58.5106 27.9912 59.5951 27.7626 60.2993 27.4992V25.1563ZM99.881 22.406C99.881 24.9148 98.8992 25.9597 97.481 25.9597C96.0488 25.9597 95.2428 24.7452 95.2428 22.6152C95.2428 20.4413 96.4927 18.6444 98.7936 18.6444C99.1591 18.6385 99.5246 18.677 99.881 18.7589V22.406ZM102.826 27.8311C102.741 27.2203 102.497 25.6077 102.497 24.2195V17.1138C102.088 17.011 100.603 16.6177 98.8992 16.6177C94.4637 16.6177 92.561 19.5889 92.561 22.8036C92.561 25.7589 94.0431 28.0757 96.8928 28.0757C98.9743 28.0757 99.9065 26.73 100.259 26.0123H100.327C100.354 26.3532 100.447 27.511 100.478 27.8317H102.827L102.826 27.8311ZM65.5306 16.8977H62.9149V27.8305H65.5306V16.8977ZM80.8135 27.8305V20.2659C80.8135 19.2516 80.7213 17.3064 80.6948 16.8652H83.0446L83.1551 18.4028H83.2041C83.477 17.9727 84.3566 16.6177 86.407 16.6177C88.8827 16.6177 90.2584 18.437 90.2584 20.7041V27.8311H87.6445V21.2211C87.6445 19.8287 86.8706 18.7767 85.538 18.7767C84.1641 18.7767 83.4315 19.8872 83.4315 21.2211V27.8305H80.8135ZM106.664 25.952C106.598 25.9137 106.488 25.8959 106.342 25.8959H106.113V26.4429H106.355C106.441 26.4472 106.527 26.4362 106.61 26.4104C106.714 26.3691 106.766 26.2905 106.766 26.173C106.766 26.0631 106.733 25.9898 106.664 25.952ZM106.376 25.714C106.564 25.714 106.703 25.7317 106.79 25.7672C106.947 25.8345 107.025 25.9603 107.025 26.1511C107.025 26.287 106.976 26.3886 106.878 26.4506C106.811 26.4899 106.737 26.5148 106.659 26.5238C106.763 26.5345 106.858 26.5889 106.92 26.6733C106.97 26.7411 106.999 26.8227 107.002 26.9072V27.0183C107.002 27.0537 107.002 27.091 107.004 27.1306C107.004 27.1577 107.01 27.1848 107.018 27.2102L107.026 27.228H106.777L106.774 27.2132C106.773 27.2085 106.771 27.2026 106.771 27.1961L106.765 27.1482V27.0283C106.765 26.8535 106.716 26.7371 106.622 26.681C106.564 26.6502 106.465 26.6313 106.325 26.6313H106.114V27.228H105.847V25.714H106.376ZM105.564 25.6372C105.452 25.7462 105.364 25.8768 105.305 26.021C105.245 26.1653 105.216 26.3201 105.219 26.476C105.219 26.8068 105.333 27.0904 105.564 27.3225C105.782 27.5511 106.087 27.6781 106.404 27.6728C106.733 27.6728 107.014 27.5558 107.245 27.3225C107.473 27.091 107.59 26.8068 107.59 26.4778C107.59 26.1481 107.473 25.8681 107.245 25.6366C107.136 25.5239 107.006 25.4348 106.86 25.3746C106.716 25.3144 106.561 25.2846 106.404 25.2869C106.247 25.2844 106.092 25.3141 105.947 25.3742C105.803 25.4344 105.672 25.5237 105.564 25.6366L105.564 25.6372ZM107.38 27.4542C107.254 27.5853 107.102 27.6889 106.935 27.7587C106.766 27.8285 106.586 27.8631 106.404 27.86C106.222 27.8632 106.042 27.8287 105.874 27.7589C105.705 27.689 105.554 27.5853 105.428 27.4542C105.298 27.3268 105.196 27.1744 105.126 27.0061C105.058 26.8378 105.023 26.6572 105.026 26.4754C105.026 26.095 105.163 25.7701 105.431 25.5008C105.557 25.3707 105.708 25.268 105.875 25.1987C106.043 25.1294 106.223 25.095 106.404 25.0979C106.586 25.0947 106.766 25.1289 106.934 25.1982C107.102 25.2675 107.254 25.3704 107.38 25.5008C107.651 25.7683 107.785 26.0939 107.785 26.4748C107.789 26.6571 107.754 26.838 107.685 27.0065C107.615 27.1749 107.511 27.3273 107.38 27.4542Z" fill="#1C4A36"/>
</g>
</svg>
