<svg width="120" height="40" viewBox="0 0 120 40" fill="none" xmlns="http://www.w3.org/2000/svg">
<mask id="mask0_12337_16505" style="mask-type:luminance" maskUnits="userSpaceOnUse" x="10" y="4" width="100" height="32">
<path d="M110 4H10V35.8183H110V4Z" fill="white"/>
</mask>
<g mask="url(#mask0_12337_16505)">
<path d="M15.0415 34.4358C16.0629 34.7885 17.136 34.9687 18.2166 34.9687C22.9903 34.9687 26.3207 31.456 26.3207 24.776V4.87108L28.134 3.99292V25.1213C28.134 31.9364 24.6703 35.9069 19.7634 35.9069C18.0834 35.8919 16.4403 35.3815 15.0415 34.4358ZM12.9692 32.4092C14.072 32.7771 15.1747 33.0172 16.1443 33.0172C20.1631 33.0172 22.8349 30.4653 22.8349 24.686V6.38722L24.6185 5.53158V24.851C24.6185 30.8931 21.5989 33.978 17.4025 33.978C15.8556 33.978 14.2792 33.3925 12.9692 32.4018V32.4092ZM11.711 30.6004C12.5696 30.8856 13.4577 31.0432 14.3606 31.0807C17.4839 31.0807 19.4007 29.3544 19.4007 24.7985V7.92588L21.1548 7.07023V24.5283C21.1548 29.6397 18.8456 31.9515 15.5374 31.9515C14.146 31.9439 12.799 31.4711 11.7036 30.5929L11.711 30.6004ZM17.7503 25.2789V8.6239L10.0088 12.1591V25.6842C10.0088 28.2662 11.6074 29.9925 13.9684 29.9925C16.3293 29.9925 17.7503 28.2286 17.7503 25.2789Z" fill="#1C4A36"/>
<path d="M38.0963 8.59465V14.8018C38.0963 17.0985 39.4359 18.8849 41.9893 18.8849C44.18 18.8849 45.8378 17.2486 45.8378 14.7492V8.75978C45.8156 8.09928 46.3263 7.54386 46.9776 7.52135C46.985 7.52135 46.985 7.52135 46.9924 7.52135L47.2218 7.50633V6.9209H43.3732V7.50633L43.6249 7.52135C44.2762 7.53636 44.7942 8.08427 44.7794 8.74477C44.7794 8.75227 44.7794 8.75227 44.7794 8.75978V14.5691C44.7794 16.4606 43.8025 17.6165 42.2853 17.6165C40.7681 17.6165 39.8429 16.3931 39.8429 14.5541V8.59465C39.8429 7.94166 40.1908 7.56638 40.9161 7.52135L41.1455 7.50633V6.9209H36.7715V7.50633L37.0232 7.52135C37.7337 7.57389 38.0963 7.92665 38.0963 8.59465Z" fill="#1C4A36"/>
<path d="M43.2921 21.8415L43.5363 21.8565C44.1506 21.8866 44.6095 22.1418 44.6095 22.8473V26.495H40.2872V22.8473C40.2872 22.1418 40.7461 21.9091 41.3604 21.8565L41.5898 21.8415V21.2561H37.2158V21.8415L37.4674 21.8565C38.0818 21.8866 38.5406 22.1418 38.5406 22.8473V31.3812C38.5406 32.0867 38.0818 32.3344 37.4674 32.3719L37.2158 32.3869V32.9724H41.5898V32.3869L41.3604 32.3719C40.7461 32.3194 40.2872 32.0867 40.2872 31.3812V27.4032H44.602V31.3812C44.602 32.0867 44.1432 32.3344 43.5289 32.3719L43.2847 32.3869V32.9724H47.6587V32.3869L47.4292 32.3719C46.8224 32.3194 46.3561 32.0867 46.3561 31.3812V22.8473C46.3561 22.1418 46.815 21.9091 47.4292 21.8565L47.6587 21.8415V21.2561H43.2921V21.8415Z" fill="#1C4A36"/>
<path d="M47.207 10.3583V10.9138L47.5327 10.9288C48.0359 10.9663 48.3616 11.214 48.3616 11.9195V17.0759C48.3616 17.7814 48.0137 18.0291 47.4512 18.0591L47.207 18.0742V18.6446H51.1148V18.0742L50.8854 18.0591C50.3228 18.0291 49.9824 17.7739 49.9824 17.0759V14.3363C50.0121 12.3248 50.8705 11.1239 51.8771 11.1239C52.6542 11.1239 53.1648 11.6568 53.1648 12.7001V17.0834C53.1648 17.7889 52.817 18.0366 52.2545 18.0666L52.0029 18.0816V18.6521H55.9181V18.0816L55.6887 18.0666C55.1262 18.0366 54.7783 17.7814 54.7783 17.0834V12.5125C54.7783 11.2065 53.9864 10.1182 52.4174 10.1182C51.3146 10.1182 50.3525 10.7862 49.975 11.9795V10.1557L47.207 10.3734V10.3583Z" fill="#1C4A36"/>
<path d="M69.7871 18.81C71.4524 18.81 72.3997 17.6541 72.7771 16.3482L72.0666 16.153C71.7262 17.0537 71.1563 17.7592 70.0018 17.7592C68.6621 17.7592 67.7592 16.4682 67.7592 14.4267H72.8956V13.9388C72.8956 11.7772 71.6448 10.0359 69.6243 10.0359C67.4631 10.0359 66.0273 12.1299 66.0273 14.4192C66.0273 16.7084 67.4114 18.81 69.7871 18.81ZM69.6095 10.9891C70.5198 10.9891 71.0971 11.8447 71.1637 13.6011H67.7962C67.959 11.9798 68.6251 10.9891 69.6095 10.9891Z" fill="#1C4A36"/>
<path d="M61.668 16.7664C61.668 18.0724 62.4451 18.8079 63.6811 18.8079C64.8356 18.8079 65.5979 17.9523 65.9458 16.7289L65.3537 16.5562C65.1243 17.2618 64.7395 17.6971 64.214 17.6971C63.5183 17.6971 63.2888 17.1867 63.2888 16.5788V11.1597H65.5535V10.289H63.2888V7.7146H62.4673C62.1565 9.65856 61.1796 10.3566 60.1582 10.5742V11.1597H61.6754V16.7664H61.668Z" fill="#1C4A36"/>
<path d="M58.2032 8.78796C58.8027 8.76544 59.2764 8.24755 59.2468 7.63959C59.2245 7.06166 58.7657 6.60381 58.2032 6.5813C57.6185 6.5888 57.1449 7.07667 57.1449 7.66961C57.1301 8.27007 57.5963 8.77294 58.1884 8.78796C58.1958 8.78796 58.1958 8.78796 58.2032 8.78796Z" fill="#1C4A36"/>
<path d="M57.4416 11.9112V17.0676C57.4416 17.7731 57.0938 18.0208 56.5313 18.0508L56.2796 18.0659V18.6363H60.1948V18.0659L59.9654 18.0508C59.4029 18.0208 59.055 17.7657 59.055 17.0676V10.1399L56.1982 10.3576V10.913L56.6127 10.928C57.1234 10.943 57.4416 11.2132 57.4416 11.9187V11.9112Z" fill="#1C4A36"/>
<path d="M77.1001 18.8078C78.1881 18.8078 79.0317 18.2374 79.3945 17.2692V18.6352H82.1476V18.0723L81.9182 18.0573C81.3557 18.0272 81.0079 17.7721 81.0079 17.074V6.70874L78.2029 6.96394V7.51935L78.5655 7.53436C79.0688 7.54938 79.3945 7.81958 79.3945 8.52511V11.5424C79.0317 10.6042 78.1881 10.0488 77.1001 10.0488C74.939 10.0488 73.7178 12.1428 73.7178 14.432C73.7178 16.7213 74.939 18.8228 77.1001 18.8228V18.8078ZM77.3813 10.987C78.6025 10.987 79.3945 12.3229 79.3945 14.4095C79.3945 16.4961 78.6025 17.8321 77.3813 17.8321C76.2268 17.8321 75.4644 16.5111 75.4644 14.4095C75.4644 12.308 76.2268 10.987 77.3813 10.987Z" fill="#1C4A36"/>
<path d="M101.67 24.4077C100.716 24.4077 99.8868 25.0457 99.5241 26.179V24.4678L96.7559 24.6929V25.2408L97.0812 25.2558C97.5847 25.2934 97.9101 25.5411 97.9101 26.2466V31.403C97.9101 32.1084 97.5696 32.3562 97.0001 32.3937L96.7559 32.4162V32.9866H100.664V32.4162L100.434 32.4012C99.8717 32.3636 99.5312 32.116 99.5312 31.4104V28.5959C99.5606 26.5018 100.456 25.1958 101.545 25.1958C101.751 25.1807 101.951 25.2558 102.085 25.4134C101.796 25.5636 101.618 25.8713 101.626 26.2015C101.626 26.6894 102.018 27.0872 102.499 27.0872C102.98 27.0872 103.372 26.6819 103.372 26.119C103.365 25.0682 102.595 24.4077 101.67 24.4077Z" fill="#1C4A36"/>
<path d="M106.986 24.3629C104.824 24.3629 103.389 26.457 103.389 28.7462C103.389 31.0429 104.773 33.1295 107.156 33.1295C108.821 33.1295 109.761 31.9736 110.146 30.6676L109.436 30.465C109.095 31.3657 108.525 32.0712 107.371 32.0712C106.031 32.0712 105.128 30.7802 105.128 28.7387H110.265V28.2508C110.265 26.0967 109.006 24.3479 106.993 24.3479L106.986 24.3629ZM105.15 27.9281C105.32 26.3069 105.979 25.3161 106.963 25.3161C107.873 25.3161 108.451 26.1717 108.518 27.9281H105.15Z" fill="#1C4A36"/>
<path d="M95.3486 31.5826V27.2143C95.3486 25.4204 94.2461 24.3696 92.3808 24.3696C90.7827 24.3696 89.3612 25.4429 89.3612 26.6663C89.3541 27.1542 89.7391 27.5596 90.2195 27.567C90.7008 27.5745 91.1009 27.1843 91.1081 26.6964C91.1081 26.3736 90.9378 26.0734 90.6642 25.9083C90.9601 25.488 91.4931 25.2403 92.1294 25.2403C93.1436 25.2403 93.7506 26.0134 93.7506 27.2968V27.6796L91.3077 28.7079C89.6723 29.3909 89.1172 29.9989 89.1172 31.0872C89.1172 32.3407 90.0056 33.1438 91.4111 33.1438C92.4476 33.1438 93.3727 32.4908 93.7354 31.5075V31.7627C93.7354 32.6184 94.3273 33.1287 95.3192 33.1287C95.6748 33.1362 96.0224 33.0837 96.3557 32.9786V32.4232C95.6597 32.5058 95.3486 32.2356 95.3486 31.5975V31.5826ZM93.7354 29.6912C93.6543 31.1623 92.9289 32.153 91.9218 32.153C91.1971 32.153 90.7382 31.6501 90.7382 30.8846C90.7382 30.2015 91.1009 29.6611 91.7961 29.3609L93.7577 28.4752L93.7426 29.6986L93.7354 29.6912Z" fill="#1C4A36"/>
<path d="M72.1786 30.9006C71.9491 31.6061 71.5716 32.0415 71.0388 32.0415C70.3431 32.0415 70.1137 31.5311 70.1137 30.9232V25.4966H72.3784V24.6259H70.1137V22.0515H69.2847C68.9738 23.9954 67.997 24.7009 66.9756 24.9187V25.5041H68.4928V31.1108C68.4928 32.4168 69.2699 33.1523 70.5059 33.1523C71.6605 33.1523 72.4228 32.2967 72.7632 31.0733L72.1712 30.9081L72.1786 30.9006Z" fill="#1C4A36"/>
<path d="M61.7122 31.5826V27.2143C61.7122 25.4204 60.6094 24.3696 58.7443 24.3696C57.1457 24.3696 55.7247 25.4429 55.7247 26.6663C55.7173 27.1542 56.1021 27.5596 56.5832 27.567C57.0643 27.5745 57.4639 27.1843 57.4713 26.6964C57.4713 26.3736 57.3011 26.0734 57.0273 25.9083C57.3233 25.488 57.8562 25.2403 58.4927 25.2403C59.5067 25.2403 60.1135 26.0134 60.1135 27.2968V27.6796L57.6712 28.7079C56.0355 29.3909 55.4805 29.9989 55.4805 31.0872C55.4805 32.3407 56.3686 33.1438 57.7748 33.1438C58.811 33.1438 59.7361 32.4908 60.1061 31.5075V31.7627C60.1061 32.6184 60.6982 33.1287 61.69 33.1287C62.0452 33.1362 62.3931 33.0837 62.7261 32.9786V32.4232C62.0304 32.5058 61.7196 32.2356 61.7196 31.5975L61.7122 31.5826ZM60.0987 29.6912C60.0174 31.1623 59.292 32.153 58.2855 32.153C57.5602 32.153 57.1013 31.6501 57.1013 30.8846C57.1013 30.2015 57.4639 29.6611 58.1596 29.3609L60.1209 28.4752L60.1061 29.6986L60.0987 29.6912Z" fill="#1C4A36"/>
<path d="M85.8256 32.0855C84.4859 32.0855 83.583 30.7944 83.583 28.7529C83.583 26.6739 84.4711 25.3529 85.8108 25.3529C86.4028 25.3529 86.8691 25.5556 87.1503 25.9233C86.8913 26.0959 86.7433 26.3812 86.7359 26.6964C86.7359 27.1843 87.1281 27.5821 87.6092 27.5821C88.1051 27.5821 88.4826 27.1843 88.4826 26.6138C88.4826 25.6081 87.4908 24.3696 85.7293 24.3696C83.2721 24.3696 81.8438 26.4637 81.8438 28.7529C81.8438 31.0496 83.2278 33.1363 85.611 33.1363C87.2466 33.1363 88.1717 32.0329 88.5343 30.7719L87.8238 30.5543C87.513 31.41 86.9505 32.0779 85.833 32.0779L85.8256 32.0855Z" fill="#1C4A36"/>
<path d="M65.887 31.4025V21.0447L63.082 21.2849V21.8403L63.4447 21.8553C63.948 21.8704 64.2736 22.1405 64.2736 22.8461V31.4025C64.2736 32.108 63.9258 32.3557 63.3633 32.3932L63.119 32.4082V32.9787H67.0268V32.4157L66.7974 32.4008C66.2349 32.3632 65.8944 32.1155 65.8944 31.41L65.887 31.4025Z" fill="#1C4A36"/>
<path d="M80.3485 31.4038V26.8329C80.3485 25.5269 79.5567 24.4387 77.9876 24.4387C76.8774 24.4387 75.9227 25.1066 75.5453 26.2926V21.0386L72.7402 21.2788V21.8342L73.1029 21.8492C73.6062 21.8642 73.9318 22.1344 73.9318 22.84V31.3964C73.9318 32.1019 73.584 32.3496 73.0215 32.3871L72.7698 32.4021V32.9726H76.685V32.4096L76.4556 32.3946C75.8931 32.3571 75.5453 32.1094 75.5453 31.4038V28.6643C75.5822 26.6528 76.4334 25.4519 77.4473 25.4519C78.2244 25.4519 78.7351 25.9848 78.7351 27.0281V31.4114C78.7351 32.1169 78.3873 32.3646 77.8248 32.4021L77.5731 32.4172V32.9876H81.4883V32.4096L81.2589 32.3946C80.6964 32.3571 80.3485 32.1094 80.3485 31.4038Z" fill="#1C4A36"/>
<path d="M51.5725 24.3622C49.4114 24.3622 47.9756 26.4638 47.9756 28.7531C47.9756 31.0498 49.3596 33.1363 51.7427 33.1363C53.408 33.1363 54.3479 31.9805 54.7327 30.6745L54.0222 30.4718C53.6966 31.3725 53.1119 32.078 51.9573 32.078C50.6178 32.078 49.7149 30.787 49.7149 28.7455H54.8512V28.2576C54.8512 26.096 53.593 24.3547 51.5799 24.3547L51.5725 24.3622ZM49.7444 27.9274C49.9147 26.3062 50.566 25.3154 51.5577 25.3154C52.468 25.3154 53.0453 26.1711 53.1119 27.9274H49.7444Z" fill="#1C4A36"/>
</g>
</svg>
