<svg width="68" height="15" viewBox="0 0 68 15" fill="none" xmlns="http://www.w3.org/2000/svg">
<path d="M14.158 13.9979H11.0588L9.82685 10.8183H4.18675L3.02218 13.9979H0L5.49571 0H8.50829L14.158 13.9979ZM8.9125 8.45987L6.9683 3.26553L5.06261 8.45987H8.9125Z" fill="#1C4A36"/>
<path d="M23.9714 13.9979H21.2668V8.82268C21.2668 7.72782 21.2091 7.02125 21.0936 6.70296C20.9781 6.3783 20.7888 6.12687 20.5258 5.94863C20.2691 5.77039 19.9579 5.6813 19.5922 5.6813C19.1237 5.6813 18.7034 5.80858 18.3313 6.0632C17.9592 6.31782 17.7025 6.6552 17.5613 7.07534C17.4266 7.49549 17.3592 8.27206 17.3592 9.40515V13.9979H14.6546V3.85753H17.1667V5.34711C18.0586 4.2013 19.1815 3.62839 20.5354 3.62839C21.1321 3.62839 21.6775 3.73658 22.1716 3.95301C22.6656 4.16311 23.0378 4.43363 23.2881 4.76463C23.5447 5.09563 23.7212 5.4712 23.8174 5.89134C23.9201 6.31149 23.9714 6.91301 23.9714 7.69596V13.9979Z" fill="#1C4A36"/>
<path d="M30.4258 3.85753V5.99639H28.5778V10.0831C28.5778 10.9106 28.5938 11.3944 28.626 11.5344C28.6644 11.6681 28.7447 11.7795 28.8665 11.8686C28.9949 11.9577 29.1489 12.0023 29.3285 12.0023C29.5788 12.0023 29.9413 11.9163 30.4161 11.7445L30.6471 13.826C30.0183 14.0934 29.3061 14.2271 28.5104 14.2271C28.0228 14.2271 27.5832 14.1475 27.1919 13.9883C26.8004 13.8229 26.5117 13.6128 26.3256 13.3582C26.1459 13.0972 26.0208 12.7471 25.9502 12.3078C25.8925 11.9959 25.8636 11.3657 25.8636 10.4172V5.99639H24.622V3.85753H25.8636V1.84284L28.5778 0.276905V3.85753H30.4258Z" fill="#1C4A36"/>
<path d="M34.0119 0V5.14658C34.8846 4.13444 35.9273 3.62839 37.14 3.62839C37.7624 3.62839 38.3238 3.74296 38.8243 3.9721C39.3248 4.20129 39.7002 4.4941 39.9504 4.85058C40.2071 5.20706 40.3803 5.60172 40.4701 6.03458C40.5664 6.46744 40.6145 7.13901 40.6145 8.04929V13.9979H37.91V8.64125C37.91 7.5782 37.8586 6.90348 37.756 6.61701C37.6533 6.33058 37.4704 6.10458 37.2073 5.9391C36.9507 5.7672 36.6266 5.68129 36.2352 5.68129C35.7861 5.68129 35.3851 5.78949 35.0322 6.00591C34.6792 6.22234 34.4194 6.5502 34.2526 6.98939C34.0921 7.42225 34.0119 8.0652 34.0119 8.91815V13.9979H31.3074V0H34.0119Z" fill="#1C4A36"/>
<path d="M48.301 10.7705L50.9957 11.2193C50.6491 12.1996 50.1005 12.9476 49.3498 13.4632C48.6058 13.9724 47.6722 14.2271 46.549 14.2271C44.7718 14.2271 43.4564 13.651 42.603 12.4988C41.9292 11.5758 41.5924 10.4109 41.5924 9.00411C41.5924 7.32358 42.0351 6.00911 42.9206 5.06063C43.8061 4.10582 44.9257 3.62839 46.2797 3.62839C47.8003 3.62839 49.0003 4.12806 49.8792 5.12749C50.7586 6.12049 51.1786 7.64506 51.1402 9.70115H44.3643C44.3836 10.4968 44.6017 11.1175 45.0188 11.5631C45.4359 12.0023 45.9557 12.2219 46.5782 12.2219C47.0016 12.2219 47.3578 12.1073 47.6462 11.8782C47.9352 11.649 48.1531 11.2798 48.301 10.7705ZM48.455 8.05882C48.4354 7.2822 48.2333 6.69339 47.8483 6.29239C47.4634 5.88496 46.9949 5.6813 46.4434 5.6813C45.853 5.6813 45.3653 5.89453 44.9803 6.32101C44.5953 6.74753 44.406 7.32677 44.4124 8.05882H48.455Z" fill="#1C4A36"/>
<path d="M52.1659 3.85753H54.659V5.24206C55.5509 4.16625 56.6126 3.62839 57.8448 3.62839C58.499 3.62839 59.0669 3.76206 59.5483 4.02939C60.0298 4.29677 60.4243 4.70096 60.732 5.24206C61.1813 4.70096 61.6656 4.29677 62.1854 4.02939C62.7053 3.76206 63.2602 3.62839 63.8506 3.62839C64.6013 3.62839 65.2363 3.78115 65.7562 4.08672C66.276 4.38587 66.6643 4.8283 66.9211 5.41391C67.1069 5.84677 67.2 6.54701 67.2 7.51458V13.9979H64.4957V8.20206C64.4957 7.1963 64.4026 6.54701 64.2163 6.2542C63.9662 5.87225 63.5813 5.6813 63.0614 5.6813C62.6827 5.6813 62.3266 5.79587 61.993 6.02501C61.6594 6.2542 61.4189 6.59153 61.271 7.03715C61.1237 7.47639 61.0498 8.17339 61.0498 9.12825V13.9979H58.3454V8.44077C58.3454 7.45411 58.297 6.81753 58.201 6.53111C58.1045 6.24463 57.9538 6.03139 57.7483 5.89134C57.5496 5.7513 57.277 5.6813 56.9304 5.6813C56.5133 5.6813 56.1379 5.79268 55.8043 6.01549C55.4707 6.23825 55.2302 6.55972 55.0824 6.97987C54.9413 7.39996 54.8707 8.09701 54.8707 9.07096V13.9979H52.1659V3.85753Z" fill="#1C4A36"/>
</svg>